<?xml version="1.0" encoding="UTF-8" standalone="no"?>
<!-- Created with Inkscape (http://www.inkscape.org/) -->

<svg
   xmlns:dc="http://purl.org/dc/elements/1.1/"
   xmlns:cc="http://creativecommons.org/ns#"
   xmlns:rdf="http://www.w3.org/1999/02/22-rdf-syntax-ns#"
   xmlns:svg="http://www.w3.org/2000/svg"
   xmlns="http://www.w3.org/2000/svg"
   xmlns:sodipodi="http://sodipodi.sourceforge.net/DTD/sodipodi-0.dtd"
   xmlns:inkscape="http://www.inkscape.org/namespaces/inkscape"
   width="210mm"
   height="297mm"
   viewBox="0 0 210 297"
   version="1.1"
   id="svg204"
   inkscape:version="0.92.4 (5da689c313, 2019-01-14)"
   sodipodi:docname="fffc.svg">
  <defs
     id="defs198" />
  <sodipodi:namedview
     id="base"
     pagecolor="#ffffff"
     bordercolor="#666666"
     borderopacity="1.0"
     inkscape:pageopacity="0.0"
     inkscape:pageshadow="2"
     inkscape:zoom="0.35"
     inkscape:cx="-28.571429"
     inkscape:cy="560"
     inkscape:document-units="mm"
     inkscape:current-layer="layer1"
     showgrid="false"
     inkscape:window-width="1920"
     inkscape:window-height="1017"
     inkscape:window-x="-8"
     inkscape:window-y="-8"
     inkscape:window-maximized="1" />
  <metadata
     id="metadata201">
    <rdf:RDF>
      <cc:Work
         rdf:about="">
        <dc:format>image/svg+xml</dc:format>
        <dc:type
           rdf:resource="http://purl.org/dc/dcmitype/StillImage" />
        <dc:title></dc:title>
      </cc:Work>
    </rdf:RDF>
  </metadata>
  <g
     inkscape:label="Layer 1"
     inkscape:groupmode="layer"
     id="layer1">
    <g
       id="g151"
       style="display:inline;fill:#000000"
       transform="matrix(2.9658566,0,0,2.9658566,-1133.3469,-286.65633)"
       inkscape:transform-center-x="1176.3713"
       inkscape:transform-center-y="-1913.0393">
      <g
         transform="matrix(0.8852221,0,0,0.8852221,49.47474,17.86445)"
         id="g3231"
         style="fill:#000000">
        <g
           transform="translate(-38.932071,3.1145657)"
           id="g1151"
           style="fill:#000000">
          <g
             id="g1141"
             style="fill:#000000">
            <path
               sodipodi:nodetypes="cccsccccccccccccccccccccccsccsccccscccccccccccccccccccscscccccccccccccccccsscccsccccccsccccccccccccccc"
               inkscape:connector-curvature="0"
               id="path1086"
               d="m 443.73177,155.16722 c -0.30966,-0.22541 -0.47342,-2.21461 -0.27146,-3.29743 0.0801,-0.42964 0.0716,-0.6498 -0.0374,-0.95853 -0.0778,-0.22043 -0.14141,-0.58 -0.14141,-0.79904 0,-0.64519 -1.02486,-3.52857 -1.31875,-3.7102 -0.0522,-0.0322 -0.19125,-0.25775 -0.30907,-0.50114 -0.28608,-0.59096 -0.63819,-0.90371 -1.1024,-0.97917 -0.26869,-0.0437 -0.42081,-0.1376 -0.50885,-0.31421 -0.23408,-0.46951 -1.07389,-1.12024 -1.66822,-1.29261 -0.30926,-0.0897 -0.6543,-0.19623 -0.76676,-0.23674 -0.28654,-0.10322 -2.26806,-0.0412 -2.59355,0.0812 -0.14797,0.0556 -0.49907,0.12448 -0.78022,0.15297 l -0.51117,0.0518 0.52757,-0.25042 c 0.29017,-0.13774 0.90607,-0.34614 1.36867,-0.46312 1.1235,-0.28411 2.72102,-0.23565 3.60812,0.10946 1.48051,0.57595 2.68072,1.77552 3.5514,3.54952 0.2859,0.5825 0.5574,1.03587 0.60334,1.00747 0.0459,-0.0284 0.11564,-0.38534 0.15488,-0.79323 0.10049,-1.04436 0.33587,-2.24259 0.46578,-2.37101 0.0777,-0.0768 0.13937,-0.0563 0.2108,0.0703 0.22171,0.39294 0.71087,0.0705 0.54577,-0.35975 -0.0335,-0.0872 0.0214,-0.3122 0.12194,-0.50002 0.22874,-0.42735 0.44013,-1.20758 0.37393,-1.38011 -0.0275,-0.0716 0.0835,-0.32785 0.24664,-0.56954 0.16311,-0.24168 0.40637,-0.76082 0.54057,-1.15363 0.1342,-0.39282 0.32165,-0.80622 0.41655,-0.91868 0.0949,-0.11246 0.19684,-0.34249 0.22654,-0.51118 0.0564,-0.3206 0.74177,-2.2168 1.54431,-4.27286 0.25886,-0.6632 0.47065,-1.27464 0.47065,-1.35876 0,-0.0841 0.0888,-0.2776 0.19723,-0.42996 0.10847,-0.15235 0.43411,-0.92109 0.72365,-1.7083 0.50299,-1.36756 0.75334,-1.89767 1.54506,-3.27153 0.19442,-0.33737 0.41755,-0.77443 0.49585,-0.97123 0.27934,-0.70208 1.43483,-2.35141 1.64736,-2.35141 0.0474,0 -0.18976,0.42555 -0.52699,0.94567 -0.75159,1.15919 -1.77108,3.13563 -2.14896,4.16609 -0.15464,0.42172 -0.62229,1.57187 -1.0392,2.55588 -0.41692,0.98402 -1.04652,2.64023 -1.39911,3.68047 -0.35259,1.04025 -0.75529,2.18114 -0.89488,2.53533 -0.13959,0.35418 -0.22851,0.70989 -0.1976,0.79045 0.0309,0.0806 -0.0578,0.36624 -0.19715,0.63484 -0.13935,0.26859 -0.299,0.77172 -0.35478,1.11805 -0.0558,0.34634 -0.2127,1.01303 -0.34871,1.48155 -0.13602,0.46851 -0.36545,1.25885 -0.50986,1.75631 -0.45749,1.57601 -0.88514,3.85598 -0.97562,5.20136 -0.11105,1.65121 0.0218,3.60603 0.30001,4.41471 0.25725,0.74774 0.26085,1.00337 0.0173,1.22383 -0.20861,0.18878 -1.1228,0.32677 -1.30178,0.19649 z m -6.26228,-16.70254 c -0.60976,-0.1199 -0.97372,-0.37276 -1.45118,-1.00821 -0.40161,-0.53449 -0.43834,-0.62381 -0.55389,-1.34712 -0.0325,-0.20314 -0.15012,-0.4518 -0.26148,-0.55258 -0.31771,-0.28751 -0.24694,-0.57074 0.41224,-1.64992 0.96807,-1.58488 1.01376,-1.64642 1.38523,-1.86558 0.19331,-0.11406 0.35147,-0.25728 0.35147,-0.31828 0,-0.061 0.17252,-0.18282 0.38338,-0.27073 0.21086,-0.0879 0.5055,-0.24658 0.65475,-0.35261 0.61209,-0.43481 0.52569,-0.0876 -0.17939,0.72082 -0.72818,0.83495 -1.01779,1.29666 -1.34286,2.14085 -0.35622,0.92508 -0.37668,2.1174 -0.0471,2.74577 0.26662,0.50837 0.45691,0.57736 1.42464,0.51647 0.6173,-0.0388 0.76096,-0.0919 1.34299,-0.49641 0.35846,-0.24911 0.93611,-0.71022 1.28366,-1.02471 0.34754,-0.31448 0.75974,-0.60387 0.91599,-0.64309 0.30333,-0.0761 1.46899,-1.14411 1.36368,-1.24941 -0.0345,-0.0345 0.0285,-0.29423 0.13996,-0.57711 0.1115,-0.28288 0.2496,-0.73286 0.30688,-0.99994 0.0573,-0.26709 0.16545,-0.56946 0.24037,-0.67193 0.11553,-0.15798 0.16123,-0.16556 0.30065,-0.0498 0.28303,0.23489 0.21643,-0.52623 -0.0768,-0.87753 -0.13266,-0.15895 -0.31954,-0.44175 -0.41528,-0.62845 -0.0958,-0.1867 -0.33225,-0.43278 -0.52556,-0.54683 -0.19332,-0.11406 -0.35148,-0.24884 -0.35148,-0.29952 0,-0.0507 -0.0893,-0.0921 -0.19844,-0.0921 -0.10914,0 -0.22637,-0.0452 -0.26052,-0.10045 -0.0642,-0.10383 -1.47704,-0.54894 -2.08215,-0.65596 -0.27735,-0.049 -0.33181,-0.0314 -0.28436,0.0923 0.0473,0.12328 -0.041,0.15296 -0.45511,0.15296 -0.63532,0 -1.42228,-0.18955 -1.39295,-0.3355 0.024,-0.11965 -0.0921,-0.1288 -3.22029,-0.25377 -1.16464,-0.0465 -2.1507,-0.11776 -2.19124,-0.15831 -0.29312,-0.29311 1.02291,-0.4722 3.49088,-0.47507 1.61419,-0.002 3.1777,0.11454 4.90646,0.36531 0.28068,0.0407 0.78397,0.18126 1.11841,0.31233 0.33444,0.13106 0.71581,0.2383 0.84749,0.2383 0.13168,0 0.26543,0.0678 0.29724,0.15069 0.0318,0.0829 0.30554,0.27188 0.6083,0.42001 1.66248,0.81337 2.19194,2.72008 1.27516,4.59218 -0.32788,0.66956 -1.83732,2.53666 -2.394,2.96126 -0.19155,0.1461 -0.47267,0.44515 -0.62471,0.66454 -0.15204,0.2194 -0.41337,0.44664 -0.58073,0.50498 -0.16736,0.0583 -0.38175,0.19488 -0.47643,0.30343 -0.11821,0.13553 -0.55643,0.2807 -1.39895,0.46344 -1.28807,0.27936 -1.56031,0.29787 -2.28492,0.15539 z m 0.11237,-9.93477 c 0.0234,-0.0703 0.11909,-0.14264 0.21263,-0.16078 0.11861,-0.023 0.15141,0.0157 0.10839,0.12779 -0.0725,0.189 -0.38361,0.22096 -0.32102,0.033 z"
               style="fill:#000000;stroke-width:0.10223527" />
          </g>
          <path
             style="opacity:1;fill:#000000;fill-opacity:1;stroke:none;stroke-width:1.56354213;stroke-miterlimit:4;stroke-dasharray:none;stroke-opacity:1"
             d="m 1472.9196,306.66463 c -3.3633,-0.88219 -6.1102,-3.63028 -6.9809,-6.98384 -0.2407,-0.92715 -0.8027,-2.44247 -1.249,-3.36738 -0.4462,-0.92491 -0.8108,-1.98581 -0.8102,-2.35757 0,-1.35296 5.4764,-9.81789 7.4472,-11.51608 1.9399,-1.67156 5.9997,-4.14164 6.3051,-3.83618 0.088,0.0879 -0.8945,1.45996 -2.183,3.04903 -3.3174,4.09088 -5.64,8.9103 -5.9511,12.34853 -0.2757,3.04681 0.2774,5.7057 1.5003,7.21234 0.7127,0.87801 1.137,0.98237 3.8833,0.95498 3.6728,-0.0366 4.3542,-0.35471 9.2145,-4.30189 1.9848,-1.61191 4.1723,-3.22217 4.8611,-3.57836 1.8753,-0.96977 5.6128,-4.47017 5.6225,-5.2659 0,-0.38322 0.5469,-2.39944 1.2048,-4.48049 1.0246,-3.24089 1.3249,-3.77893 2.0935,-3.75034 0.7059,0.0263 0.8974,-0.2123 0.8974,-1.11801 0,-1.55586 -3.1533,-6.10772 -5.2739,-7.6131 -2.9023,-2.0603 -11.5427,-4.56139 -11.5427,-3.34121 0,0.93646 -6.0838,0.25642 -6.7055,-0.74953 -0.1681,-0.27195 -4.0553,-0.62682 -9.9233,-0.90593 -9.3979,-0.44701 -11.6847,-0.82613 -9.1824,-1.52233 1.9537,-0.54354 22.6339,-0.38647 26.8622,0.20403 9.7748,1.36507 17.2346,5.20513 19.6191,10.0993 1.4904,3.05888 1.36,7.42943 -0.3284,11.0094 -2.1547,4.56871 -10.6899,14.33786 -14.8093,16.95028 -3.2328,2.05022 -11.4844,3.66994 -14.5713,2.86025 z"
             id="path1126"
             inkscape:connector-curvature="0"
             transform="matrix(0.26458333,0,0,0.26458333,47.772219,57.287872)" />
          <path
             style="opacity:1;fill:#000000;fill-opacity:1;stroke:none;stroke-width:0.27639782;stroke-miterlimit:4;stroke-dasharray:none;stroke-opacity:1"
             d="m 1480.124,265.48917 c -2.714,-0.17294 -6.5187,-0.24751 -12.8201,-0.25129 -3.781,-0.002 -7.627,0.0175 -8.5467,0.044 -1.814,0.0522 -1.722,-0.008 0.2973,-0.19372 4.2627,-0.39266 11.3217,-0.42469 16.7219,-0.0759 1.6845,0.10881 4.7036,0.3698 5.5344,0.47843 l 0.4483,0.0586 -0.3716,-0.002 c -0.2044,-9.2e-4 -0.773,-0.0272 -1.2635,-0.0585 z"
             id="path1128"
             inkscape:connector-curvature="0"
             transform="matrix(0.26458333,0,0,0.26458333,47.772219,57.287872)" />
          <path
             style="opacity:1;fill:#000000;fill-opacity:1;stroke:none;stroke-width:0.09772138;stroke-miterlimit:4;stroke-dasharray:none;stroke-opacity:1"
             d="m 1473.5088,269.71565 c -0.1562,-0.0577 -0.2365,-0.15142 -0.2365,-0.27571 0,-0.28892 0.3648,-0.65449 0.7573,-0.75888 0.062,-0.0166 0.1838,-0.0312 0.2697,-0.0324 0.2003,-0.003 0.2605,0.0446 0.2605,0.20539 0,0.40546 -0.4185,0.82862 -0.854,0.86354 -0.087,0.007 -0.1754,0.006 -0.197,-0.002 z"
             id="path1132"
             inkscape:connector-curvature="0"
             transform="matrix(0.26458333,0,0,0.26458333,47.772219,57.287872)" />
          <path
             style="opacity:1;fill:#000000;fill-opacity:1;stroke:none;stroke-width:0.09772138;stroke-miterlimit:4;stroke-dasharray:none;stroke-opacity:1"
             d="m 1479.4602,269.30765 c -1.7019,-0.12955 -3.533,-0.56251 -4.0515,-0.95801 -0.1068,-0.0814 -0.1743,-0.20541 -0.1513,-0.27777 0.016,-0.0514 0.021,-0.0503 0.1,0.0259 0.5329,0.51331 2.6671,1.00133 4.6829,1.07077 0.7383,0.0254 1.4604,-0.0523 1.7168,-0.18492 0.105,-0.0543 0.2127,-0.19 0.2127,-0.26807 0,-0.0385 0.034,-0.0996 0.082,-0.14782 l 0.082,-0.0821 0.061,0.20895 c 0.034,0.11493 0.062,0.24517 0.062,0.28943 0,0.17126 -0.2092,0.27429 -0.669,0.32603 -0.2767,0.0311 -1.7091,0.0296 -2.1284,-0.002 z"
             id="path1134"
             inkscape:connector-curvature="0"
             transform="matrix(0.26458333,0,0,0.26458333,47.772219,57.287872)" />
          <path
             style="opacity:1;fill:#000000;fill-opacity:1;stroke:none;stroke-width:0.19544277;stroke-miterlimit:4;stroke-dasharray:none;stroke-opacity:1"
             d="m 1468.2853,267.32717 c -0.4914,-0.0233 -2.1113,-0.0912 -3.5998,-0.15098 -4.6536,-0.18687 -8.0524,-0.38885 -9.3011,-0.55274 -0.4501,-0.0591 -0.5682,-0.0933 -0.6438,-0.18658 -0.051,-0.0628 -0.092,-0.15646 -0.092,-0.20807 0,-0.22043 0.6189,-0.5765 1.1342,-0.65256 0.1836,-0.0271 0.1741,-0.0188 -0.088,0.0765 -0.2876,0.10453 -0.5205,0.26876 -0.5205,0.36711 0,0.1502 0.5533,0.32212 1.4308,0.44458 1.5398,0.21489 3.4465,0.34997 8.9482,0.63392 3.1057,0.16029 4.8013,0.27272 4.0991,0.27178 -0.2602,-3.4e-4 -0.875,-0.0197 -1.3664,-0.0429 z"
             id="path1136"
             inkscape:connector-curvature="0"
             transform="matrix(0.26458333,0,0,0.26458333,47.772219,57.287872)" />
          <path
             style="opacity:1;fill:#000000;fill-opacity:1;stroke:none;stroke-width:0.19544277;stroke-miterlimit:4;stroke-dasharray:none;stroke-opacity:1"
             d="m 1495.8015,269.55812 c -0.1271,-0.0762 -0.6237,-0.32162 -1.1036,-0.54545 -2.9651,-1.38308 -6.327,-2.38746 -10.2912,-3.07457 -0.7449,-0.12912 -1.1888,-0.22181 -0.9865,-0.20598 0.6289,0.0492 3.0681,0.39261 3.7436,0.52705 0.8889,0.17692 2.4378,0.63236 3.5348,1.03938 1.5276,0.56678 2.4666,0.83194 3.2681,0.92288 0.6478,0.0735 0.8518,0.19231 1.2099,0.70485 0.079,0.11319 0.4404,0.40714 0.8316,0.67659 0.2062,0.14199 0.048,0.10767 -0.2067,-0.0448 z"
             id="path1138"
             inkscape:connector-curvature="0"
             transform="matrix(0.26458333,0,0,0.26458333,47.772219,57.287872)" />
        </g>
        <text
           id="text1159"
           y="144.22389"
           x="409.14337"
           style="font-style:italic;font-variant:normal;font-weight:500;font-stretch:normal;font-size:4.61558723px;line-height:1;font-family:Montserrat;-inkscape-font-specification:'Montserrat Medium Italic';letter-spacing:0px;word-spacing:0px;fill:#000000;fill-opacity:1;stroke:none;stroke-width:0.17308451"
           xml:space="preserve"><tspan
             style="font-style:normal;font-variant:normal;font-weight:600;font-stretch:normal;line-height:1;font-family:Montserrat;-inkscape-font-specification:'Montserrat Semi-Bold';fill:#000000;fill-opacity:1;stroke-width:0.17308451"
             y="144.22389"
             x="409.14337"
             id="tspan1157"
             sodipodi:role="line">F<tspan
   id="tspan1241"
   style="fill:#000000">ISAT</tspan></tspan><tspan
             id="tspan1161"
             style="font-style:normal;font-variant:normal;font-weight:600;font-stretch:normal;line-height:1;font-family:Montserrat;-inkscape-font-specification:'Montserrat Semi-Bold';fill:#000000;fill-opacity:1;stroke-width:0.17308451"
             y="148.83948"
             x="409.14337"
             sodipodi:role="line">F<tspan
   id="tspan1243"
   style="fill:#000000">REE</tspan></tspan><tspan
             id="tspan1163"
             style="font-style:normal;font-variant:normal;font-weight:600;font-stretch:normal;line-height:1;font-family:Montserrat;-inkscape-font-specification:'Montserrat Semi-Bold';fill:#000000;fill-opacity:1;stroke-width:0.17308451"
             y="153.45506"
             x="409.14337"
             sodipodi:role="line">S<tspan
   id="tspan1245"
   style="fill:#000000">OFTWARE</tspan></tspan><tspan
             id="tspan1165"
             style="font-style:normal;font-variant:normal;font-weight:600;font-stretch:normal;line-height:1;font-family:Montserrat;-inkscape-font-specification:'Montserrat Semi-Bold';fill:#000000;fill-opacity:1;stroke-width:0.17308451"
             y="158.07065"
             x="409.14337"
             sodipodi:role="line">C<tspan
   id="tspan1247"
   style="fill:#000000">ELL</tspan></tspan></text>
      </g>
    </g>
  </g>
</svg>
